<?xml version="1.0" encoding="UTF-8" standalone="no"?>
<!DOCTYPE svg PUBLIC "-//W3C//DTD SVG 1.1//EN"
 "http://www.w3.org/Graphics/SVG/1.1/DTD/svg11.dtd">
<!-- Generated by graphviz version 9.0.0 (20230911.1827)
 -->
<!-- Pages: 1 -->
<svg width="238pt" height="310pt"
 viewBox="0.00 0.00 237.75 310.40" xmlns="http://www.w3.org/2000/svg" xmlns:xlink="http://www.w3.org/1999/xlink">
<g id="graph0" class="graph" transform="scale(1 1) rotate(0) translate(4 306.4)">
<polygon fill="black" stroke="none" points="-4,4 -4,-306.4 233.75,-306.4 233.75,4 -4,4"/>
<!-- API Post Endpoints -->
<g id="node1" class="node">
<title>API Post Endpoints</title>
<polygon fill="darkblue" stroke="lightgrey" points="180.25,-302.4 53.79,-302.4 53.79,-266.4 180.25,-266.4 180.25,-302.4"/>
<text text-anchor="middle" x="117.02" y="-280.2" font-family="Times,serif" font-size="14.00" fill="lightgrey">API Post Endpoints</text>
</g>
<!-- companies/ -->
<g id="node2" class="node">
<title>companies/</title>
<ellipse fill="darkblue" stroke="lightgrey" cx="55.02" cy="-195.6" rx="55.02" ry="18"/>
<text text-anchor="middle" x="55.02" y="-191.4" font-family="Times,serif" font-size="14.00" fill="lightgrey">companies/</text>
</g>
<!-- API Post Endpoints&#45;&gt;companies/ -->
<g id="edge1" class="edge">
<title>API Post Endpoints&#45;&gt;companies/</title>
<path fill="none" stroke="lightgrey" d="M104.77,-266.25C95.88,-253.81 83.69,-236.75 73.61,-222.63"/>
<polygon fill="lightgrey" stroke="lightgrey" points="76.57,-220.75 67.91,-214.65 70.87,-224.82 76.57,-220.75"/>
<text text-anchor="middle" x="114.37" y="-235.8" font-family="Times,serif" font-size="14.00" fill="lightgrey">run first</text>
</g>
<!-- glassdoor/ -->
<g id="node3" class="node">
<title>glassdoor/</title>
<ellipse fill="darkblue" stroke="lightgrey" cx="179.02" cy="-195.6" rx="50.73" ry="18"/>
<text text-anchor="middle" x="179.02" y="-191.4" font-family="Times,serif" font-size="14.00" fill="lightgrey">glassdoor/</text>
</g>
<!-- API Post Endpoints&#45;&gt;glassdoor/ -->
<g id="edge2" class="edge">
<title>API Post Endpoints&#45;&gt;glassdoor/</title>
<path fill="none" stroke="lightgrey" d="M129.27,-266.25C138.15,-253.81 150.34,-236.75 160.42,-222.63"/>
<polygon fill="lightgrey" stroke="lightgrey" points="163.16,-224.82 166.12,-214.65 157.46,-220.75 163.16,-224.82"/>
<text text-anchor="middle" x="184.54" y="-235.8" font-family="Times,serif" font-size="14.00" fill="lightgrey">run second</text>
</g>
<!-- Scraper -->
<g id="node4" class="node">
<title>Scraper</title>
<ellipse fill="darkblue" stroke="lightgrey" cx="117.02" cy="-106.8" rx="40.53" ry="18"/>
<text text-anchor="middle" x="117.02" y="-102.6" font-family="Times,serif" font-size="14.00" fill="lightgrey">Scraper</text>
</g>
<!-- companies/&#45;&gt;Scraper -->
<g id="edge3" class="edge">
<title>companies/&#45;&gt;Scraper</title>
<path fill="none" stroke="lightgrey" d="M66.97,-177.86C75.89,-165.38 88.25,-148.08 98.45,-133.8"/>
<polygon fill="lightgrey" stroke="lightgrey" points="101.25,-135.89 104.22,-125.72 95.56,-131.82 101.25,-135.89"/>
<text text-anchor="middle" x="113.4" y="-147" font-family="Times,serif" font-size="14.00" fill="lightgrey">triggers</text>
</g>
<!-- glassdoor/&#45;&gt;Scraper -->
<g id="edge4" class="edge">
<title>glassdoor/&#45;&gt;Scraper</title>
<path fill="none" stroke="lightgrey" d="M167.06,-177.86C158.14,-165.38 145.79,-148.08 135.58,-133.8"/>
<polygon fill="lightgrey" stroke="lightgrey" points="138.47,-131.82 129.81,-125.72 132.78,-135.89 138.47,-131.82"/>
<text text-anchor="middle" x="175.4" y="-147" font-family="Times,serif" font-size="14.00" fill="lightgrey">triggers</text>
</g>
<!-- MySQL Database -->
<g id="node5" class="node">
<title>MySQL Database</title>
<ellipse fill="darkblue" stroke="lightgrey" cx="117.02" cy="-18" rx="80.5" ry="18"/>
<text text-anchor="middle" x="117.02" y="-13.8" font-family="Times,serif" font-size="14.00" fill="lightgrey">MySQL Database</text>
</g>
<!-- Scraper&#45;&gt;MySQL Database -->
<g id="edge5" class="edge">
<title>Scraper&#45;&gt;MySQL Database</title>
<path fill="none" stroke="lightgrey" d="M117.02,-88.65C117.02,-76.96 117.02,-61.19 117.02,-47.62"/>
<polygon fill="lightgrey" stroke="lightgrey" points="120.52,-47.92 117.02,-37.92 113.52,-47.92 120.52,-47.92"/>
<text text-anchor="middle" x="138.4" y="-58.2" font-family="Times,serif" font-size="14.00" fill="lightgrey">updates</text>
</g>
</g>
</svg>
